#Comment line ignore any data following # character 
#Hierarchical Translation and Rotation (.htr) file 
[Header]	
#Header keywords are followed by a single value 
FileType HTR		#Single word string
DataType HTRS		#Translation followed by rotation and scale data
FileVersion 1		#integer
NumSegments 25		#integer
NumFrames 4		#integer
DataFrameRate 30		#integer, data frame rate in this file
EulerRotationOrder ZYX
CalibrationUnits mm
RotationUnits Degrees
GlobalAxisofGravity Y
BoneLengthAxis Y
ScaleFactor 1.00
[SegmentNames&Hierarchy]
#CHILD	PARENT
BN_Tick_Root GLOBAL
BN_Torso BN_Tick_Root
BN_L_Leg_Front01 BN_Torso
BN_L_Leg_Rear01 BN_Torso
BN_MetalTop BN_Torso
BN_Neck BN_Torso
BN_R_Leg_Front01 BN_Torso
BN_R_Leg_Rear01 BN_Torso
BN_Sack BN_Torso
BN_L_Leg_Front02 BN_L_Leg_Front01
BN_L_Leg_Front03 BN_L_Leg_Front02
BN_L_Leg_Rear02 BN_L_Leg_Rear01
BN_L_Leg_Rear03 BN_L_Leg_Rear02
BN_Head BN_Neck
BN_Needle BN_Head
BN_R_Leg_Front02 BN_R_Leg_Front01
BN_R_Leg_Front03 BN_R_Leg_Front02
BN_R_Leg_Rear02 BN_R_Leg_Rear01
BN_R_Leg_Rear03 BN_R_Leg_Rear02
BN_SackDef01 BN_Sack
BN_SackDef02 BN_Sack
BN_SackDef03 BN_Sack
BN_SackDef04 BN_Sack
BN_SackDef05 BN_Sack
BN_SackDef06 BN_Sack
[BasePosition]
#SegmentName Tx, Ty, Tz, Rx, Ry, Rz, BoneLength
BN_Tick_Root 0.000000 0.000000 0.000000 -90.000000 0.000000 0.000000 10.000000 
BN_Torso 0.000000 0.000000 0.000000 0.000000 0.000000 0.000000 10.000000 
BN_L_Leg_Front01 0.000000 0.000000 0.000000 0.000000 0.000000 0.000000 10.000000 
BN_L_Leg_Rear01 0.000000 0.000000 0.000000 0.000000 0.000000 0.000000 10.000000 
BN_MetalTop 0.000000 0.000000 0.000000 0.000000 0.000000 0.000000 10.000000 
BN_Neck 0.000000 0.000000 0.000000 0.000000 0.000000 0.000000 10.000000 
BN_R_Leg_Front01 0.000000 0.000000 0.000000 0.000000 0.000000 0.000000 10.000000 
BN_R_Leg_Rear01 0.000000 0.000000 0.000000 0.000000 0.000000 0.000000 10.000000 
BN_Sack 0.000000 0.000000 0.000000 0.000000 0.000000 0.000000 10.000000 
BN_L_Leg_Front02 0.000000 0.000000 0.000000 0.000000 0.000000 0.000000 10.000000 
BN_L_Leg_Front03 0.000000 0.000000 0.000000 0.000000 0.000000 0.000000 10.000000 
BN_L_Leg_Rear02 0.000000 0.000000 0.000000 0.000000 0.000000 0.000000 10.000000 
BN_L_Leg_Rear03 0.000000 0.000000 0.000000 0.000000 0.000000 0.000000 10.000000 
BN_Head 0.000000 0.000000 0.000000 0.000000 0.000000 0.000000 10.000000 
BN_Needle 0.000000 0.000000 0.000000 0.000000 0.000000 0.000000 10.000000 
BN_R_Leg_Front02 0.000000 0.000000 0.000000 0.000000 0.000000 0.000000 10.000000 
BN_R_Leg_Front03 0.000000 0.000000 0.000000 0.000000 0.000000 0.000000 10.000000 
BN_R_Leg_Rear02 0.000000 0.000000 0.000000 0.000000 0.000000 0.000000 10.000000 
BN_R_Leg_Rear03 0.000000 0.000000 0.000000 0.000000 0.000000 0.000000 10.000000 
BN_SackDef01 0.000000 0.000000 0.000000 0.000000 0.000000 0.000000 10.000000 
BN_SackDef02 0.000000 0.000000 0.000000 0.000000 0.000000 0.000000 10.000000 
BN_SackDef03 0.000000 0.000000 0.000000 0.000000 0.000000 0.000000 10.000000 
BN_SackDef04 0.000000 0.000000 0.000000 0.000000 0.000000 0.000000 10.000000 
BN_SackDef05 0.000000 0.000000 0.000000 0.000000 0.000000 0.000000 10.000000 
BN_SackDef06 0.000000 0.000000 0.000000 0.000000 0.000000 0.000000 10.000000 
#Beginning of Data. Separated by tabs
#Fr	Tx	Ty	Tz	Rx	Ry	Rz	SF
[BN_Tick_Root]
1 0.000000 0.000000 0.000000 0.000000 0.000000 -0.000020 0.000000
2 0.000000 0.000000 0.000000 0.000000 0.000000 -0.000020 0.000000
3 0.000000 0.000000 0.000000 0.000000 0.000000 -0.000020 0.000000
4 0.000000 0.000000 0.000000 0.000000 0.000000 -0.000020 0.000000
[BN_Torso]
1 10.022041 31.810827 206.720535 -21.345894 -3.389756 4.886087 209.393768
2 13.109902 -6.138549 208.468536 -14.717536 -3.318970 3.808338 208.970535
3 16.492538 -48.082596 210.400558 -7.867980 -3.240444 2.615139 216.453995
4 19.285627 -82.037292 211.964554 -1.454364 -3.178260 1.650160 228.103104
[BN_L_Leg_Front01]
1 -68.477791 10.734189 -26.804373 -67.311951 33.320770 130.823746 74.316254
2 -68.477791 10.734189 -26.804373 -61.196712 35.222031 131.247543 74.316254
3 -68.477791 10.734189 -26.804373 -55.386715 37.591885 131.986298 74.316254
4 -68.477791 10.734189 -26.804373 -50.069908 40.560677 133.631775 74.316254
[BN_L_Leg_Rear01]
1 -72.133743 -73.994843 -18.268616 23.429167 60.443165 -171.812225 104.939293
2 -72.133743 -73.994843 -18.268616 33.474258 59.657890 -168.685455 104.939293
3 -72.133743 -73.994843 -18.268616 44.262863 59.141312 -167.244095 104.939293
4 -72.133743 -73.994843 -18.268616 55.752323 58.529190 -165.105545 104.939293
[BN_MetalTop]
1 0.000008 13.737477 26.403606 94.497643 -32.341251 -98.369186 29.763546
2 0.000008 13.737477 26.403606 94.498344 -32.344841 -98.369659 29.763546
3 0.000008 13.737477 26.403606 94.499069 -32.348438 -98.370132 29.763546
4 0.000008 13.737477 26.403606 94.499771 -32.352024 -98.370605 29.763546
[BN_Neck]
1 0.000014 95.233284 10.002091 -89.999672 -65.297531 89.999657 95.757088
2 0.000014 95.233284 10.002091 -89.999672 -65.297531 89.999657 95.757088
3 0.000014 95.233284 10.002091 -89.999672 -65.297531 89.999657 95.757088
4 0.000014 95.233284 10.002091 -89.999672 -65.297531 89.999657 95.757088
[BN_R_Leg_Front01]
1 68.477768 10.734107 -26.804314 75.747475 43.678497 52.725151 74.316193
2 68.477768 10.734107 -26.804314 67.839394 44.086300 53.399460 74.316193
3 68.477768 10.734107 -26.804314 61.180737 45.287685 54.646812 74.316193
4 68.477768 10.734107 -26.804314 55.911716 47.819977 55.012142 74.316193
[BN_R_Leg_Rear01]
1 72.133751 -73.994873 -18.268644 24.175869 76.398041 35.262505 104.939331
2 72.133751 -73.994873 -18.268644 16.382797 76.818062 40.653915 104.939331
3 72.133751 -73.994873 -18.268644 5.284928 78.489326 52.460964 104.939331
4 72.133751 -73.994873 -18.268644 -16.080961 81.756638 55.830856 104.939331
[BN_Sack]
1 -0.000000 -78.024918 33.657791 91.379875 -11.014523 -97.199577 84.974907
2 -0.000000 -78.024918 33.657791 91.379875 -11.014520 -97.199577 84.974907
3 -0.000000 -78.024918 33.657791 91.379883 -11.014522 -97.199577 84.974907
4 -0.000000 -78.024918 33.657791 91.379875 -11.014526 -97.199570 84.974907
[BN_L_Leg_Front02]
1 142.805023 -0.000015 -0.000104 0.117850 0.511812 -113.671814 142.805023
2 142.805023 -0.000015 -0.000104 0.155662 0.398781 -102.859726 142.805023
3 142.805023 -0.000015 -0.000104 0.187166 0.271594 -90.710289 142.805023
4 142.805023 -0.000015 -0.000104 0.196462 0.168530 -80.512726 142.805023
[BN_L_Leg_Front03]
1 124.143021 -0.000045 0.000007 0.351551 -0.378535 122.307297 124.143021
2 124.143021 -0.000045 0.000007 0.352811 -0.420051 111.676346 124.143021
3 124.143021 -0.000045 0.000007 0.353751 -0.441764 97.955162 124.143021
4 124.143021 -0.000045 0.000007 0.350508 -0.447049 85.099976 124.143021
[BN_L_Leg_Rear02]
1 139.939041 0.000075 -0.000022 0.086134 -0.238421 95.154358 139.939041
2 139.939041 0.000075 -0.000022 0.049725 -0.232180 104.835464 139.939041
3 139.939041 0.000075 -0.000022 0.013807 -0.239471 114.993340 139.939041
4 139.939041 0.000075 -0.000022 -0.015406 -0.269026 123.069817 139.939041
[BN_L_Leg_Rear03]
1 142.839615 0.000179 -0.000060 0.000485 -0.002297 -113.856178 142.839615
2 142.839615 0.000179 -0.000060 0.000690 -0.002244 -124.179123 142.839615
3 142.839615 0.000179 -0.000060 0.000869 -0.002180 -133.470673 142.839615
4 142.839615 0.000179 -0.000060 0.000988 -0.002129 -139.778549 142.839615
[BN_Head]
1 57.062447 -0.000030 0.000000 -1.237223 8.807455 -10.495423 57.062447
2 57.062447 -0.000030 0.000000 -0.303267 8.129002 -3.173684 57.062447
3 57.062447 -0.000030 0.000000 0.707702 7.354133 4.424340 57.062447
4 57.062447 -0.000030 0.000000 1.510630 6.709299 11.434978 57.062447
[BN_Needle]
1 33.915272 69.677498 -0.000048 0.000003 0.000030 87.896805 77.493217
2 33.915268 69.677498 -0.000049 0.000003 0.000030 87.896805 77.493217
3 33.915264 69.677498 -0.000050 0.000003 0.000030 87.896805 77.493217
4 33.915260 69.677498 -0.000051 0.000003 0.000030 87.896805 77.493217
[BN_R_Leg_Front02]
1 142.804947 -0.000060 0.000060 -0.067904 0.618960 123.310448 142.804947
2 142.804947 -0.000060 0.000060 -0.125300 0.498144 111.981758 142.804947
3 142.804947 -0.000060 0.000060 -0.170823 0.371824 99.326065 142.804947
4 142.804947 -0.000060 0.000060 -0.188808 0.257109 88.974121 142.804947
[BN_R_Leg_Front03]
1 124.143005 -0.000060 -0.000156 -0.351199 -0.341044 -130.556641 124.143005
2 124.143005 -0.000060 -0.000156 -0.354379 -0.386395 -120.746750 124.143005
3 124.143005 -0.000060 -0.000156 -0.350800 -0.425703 -107.871254 124.143005
4 124.143005 -0.000060 -0.000156 -0.352016 -0.444031 -95.844826 124.143005
[BN_R_Leg_Rear02]
1 139.939011 -0.000149 0.000015 0.004700 -0.254992 -120.691574 139.939011
2 139.939011 -0.000149 0.000015 0.048175 -0.265445 -132.996475 139.939011
3 139.939011 -0.000149 0.000015 0.083204 -0.235335 -145.050323 139.939011
4 139.939011 -0.000149 0.000015 0.115047 -0.248064 -152.981171 139.939011
[BN_R_Leg_Rear03]
1 142.839417 0.000075 0.000119 0.002144 -0.000955 138.016159 142.839417
2 142.839417 0.000075 0.000119 0.002069 -0.001108 146.361404 142.839417
3 142.839417 0.000075 0.000119 0.002003 -0.001224 152.880936 142.839417
4 142.839417 0.000075 0.000119 0.001963 -0.001287 156.480011 142.839417
[BN_SackDef01]
1 594.632751 -15.633296 102.813446 -128.408218 -44.374973 -11.740845 603.658142
2 594.666504 -15.634457 102.819305 -128.408218 -44.374973 -11.740845 603.692383
3 594.700256 -15.635619 102.825180 -128.408218 -44.374973 -11.740845 603.726685
4 594.734009 -15.636780 102.831047 -128.408218 -44.374973 -11.740845 603.760925
[BN_SackDef02]
1 232.177460 -209.745834 117.535080 32.077126 -27.375721 -88.781525 334.236725
2 232.199097 -209.780029 117.551720 32.077126 -27.375721 -88.781525 334.279053
3 232.220718 -209.814224 117.568367 32.077126 -27.375721 -88.781525 334.321411
4 232.242355 -209.848404 117.585014 32.077126 -27.375721 -88.781525 334.363739
[BN_SackDef03]
1 594.632690 -15.633315 -102.813698 18.144459 44.375008 -11.740894 603.658081
2 594.666443 -15.634474 -102.819557 18.144459 44.375008 -11.740894 603.692383
3 594.700195 -15.635632 -102.825409 18.144459 44.375008 -11.740894 603.726685
4 594.733948 -15.636790 -102.831268 18.144459 44.375008 -11.740894 603.760925
[BN_SackDef04]
1 232.177353 -209.745773 -117.534958 146.059982 27.375723 -88.781555 334.236572
2 232.198990 -209.779968 -117.551605 146.059982 27.375723 -88.781555 334.278900
3 232.220612 -209.814163 -117.568245 146.059982 27.375723 -88.781555 334.321228
4 232.242249 -209.848343 -117.584892 146.059982 27.375723 -88.781555 334.363556
[BN_SackDef05]
1 287.722504 261.454224 -163.148834 0.155741 51.314110 90.605110 421.616028
2 287.739044 261.475281 -163.158569 0.155741 51.314110 90.605110 421.644165
3 287.755585 261.496399 -163.168274 0.155741 51.314110 90.605110 421.672302
4 287.772125 261.517456 -163.178009 0.155741 51.314110 90.605110 421.700409
[BN_SackDef06]
1 287.722595 261.454437 163.148514 152.058487 -51.314072 90.605019 421.616119
2 287.739136 261.475494 163.158234 152.058487 -51.314072 90.605019 421.644226
3 287.755676 261.496582 163.167953 152.058487 -51.314072 90.605019 421.672333
4 287.772217 261.517670 163.177689 152.058487 -51.314072 90.605019 421.700500
